<svg width="71" height="26" viewBox="0 0 71 26" fill="none" xmlns="http://www.w3.org/2000/svg">
<path d="M0.264458 16.0652C0.264458 13.4884 0.290906 10.9078 0.249345 8.33106C0.234232 7.36382 0.570497 7.00489 1.5604 7.00867C8.90533 7.03511 16.2389 7.32604 23.5725 7.71898C26.9541 7.90034 30.3432 7.93812 33.7285 8.14214C40.1704 8.5313 46.6275 8.72022 52.7256 11.229C57.2973 13.1068 61.1851 16.1218 65.3223 18.725C66.4935 19.4618 67.6421 20.2212 68.9985 20.5839C69.7768 20.7918 70.4645 21.1582 70.4494 22.0688C70.4305 23.4025 69.4935 24.2262 68.5338 24.9403C67.831 25.4617 67.1887 24.9289 66.6787 24.4869C65.2089 23.2174 63.7581 21.9177 62.345 20.5802C58.6914 17.1268 54.5958 14.4254 49.7672 12.8839C47.9574 12.3058 46.0985 11.9846 44.2283 11.9771C30.7663 11.9242 17.3044 11.9582 3.84625 11.8977C2.3765 11.8902 2.04402 12.404 2.07802 13.7604C2.16114 16.9644 2.11203 20.1721 2.10069 23.3799C2.09691 24.1204 2.23293 25.0536 1.13724 25.0914C-0.128481 25.1367 0.283349 24.0788 0.272014 23.4252C0.23801 20.9731 0.264458 18.5172 0.264458 16.0652Z" fill="#1B2272"/>
<path d="M68.7719 0V1.29972H1.13348V0H0V3.72914H1.13348V2.43319H68.7719V3.72914H69.9053V0H68.7719Z" fill="#1B2272"/>
</svg>
