<svg width="34" height="28" viewBox="0 0 34 28" fill="none" xmlns="http://www.w3.org/2000/svg">
<path d="M33.2337 12.0338C32.5914 12.0186 32.1342 11.7504 31.8811 11.0703C30.8572 8.3235 28.4769 7.59052 25.9417 7.09935C22.4581 6.42304 18.9292 6.82732 15.5061 6.68375C11.8488 6.80843 8.27831 6.57039 4.70408 7.05779C1.43589 7.50362 0.08705 8.7769 0.0908282 12.0224C0.0946065 15.7024 1.05806 19.1898 2.21043 22.6507C3.01898 25.0801 4.78342 26.2853 7.17506 26.6972C13.0238 27.7022 18.899 27.6266 24.7817 27.0523C26.788 26.8559 28.2615 25.8773 29.3119 24.1091C30.5587 22.0159 31.1405 19.7187 31.6733 17.3989C32.1871 15.1546 32.3987 14.2138 33.2261 13.8133V12.0338H33.2337ZM30.5398 14.9128C30.0184 17.618 29.6028 20.3421 28.3031 22.8358C27.3396 24.6909 25.8737 25.4579 23.7805 25.6393C19.2013 26.036 14.6447 25.9 10.0692 25.6242C5.69398 25.3597 4.3187 24.4718 3.0492 20.259C2.21799 17.4971 1.52279 14.7012 1.5908 11.7768C1.63991 9.72525 2.61093 8.83358 4.69652 8.56154C8.32743 8.08926 11.9697 8.25172 16.0048 8.2026C19.0539 8.33862 22.5072 8.01369 25.9492 8.58043C29.5801 9.17739 31.2237 11.3499 30.5398 14.9128Z" fill="#1B2272"/>
<path d="M30.9742 0V1.29972H1.13348V0H0V3.73292H1.13348V2.4332H30.9742V3.73292H32.1076V0H30.9742Z" fill="#1B2272"/>
</svg>
