<svg width="71" height="27" viewBox="0 0 71 27" fill="none" xmlns="http://www.w3.org/2000/svg">
<path d="M15.404 6.21145C18.8271 6.35502 22.3522 5.95075 25.8395 6.62706C28.3709 7.11823 30.755 7.85499 31.7789 10.598C32.0661 11.3688 32.6139 11.6106 33.3998 11.5539C34.0874 11.5048 34.7826 11.5086 35.4741 11.5501C37.0685 11.6521 38.3418 11.6559 39.0974 9.66478C39.94 7.4545 42.2938 7.06156 44.4021 6.62328C46.8202 6.12077 49.276 6.17745 51.7168 6.2379C56.2923 6.35125 60.8753 5.91297 65.447 6.57794C69.5842 7.17868 70.8612 8.91668 70.3096 13.0501C69.9658 15.6042 69.4519 18.1016 68.7492 20.5688C67.2681 25.7564 65.3601 26.0246 61.0415 26.5687C56.1147 27.1883 51.1689 27.0145 46.2194 26.6443C43.3668 26.4289 41.5684 25.0045 40.4803 22.5184C39.4186 20.0965 38.6856 17.5613 38.5231 14.9203C38.4324 13.4619 37.843 13.0048 36.4073 13.0161C32.4515 13.0463 32.4817 12.9972 31.5825 16.9153C31.0497 19.2351 30.4641 21.5323 29.2211 23.6254C28.1707 25.3937 26.6972 26.3722 24.6909 26.5687C18.8082 27.143 12.933 27.2223 7.08424 26.2135C4.6926 25.8017 2.92816 24.5964 2.11961 22.167C0.967242 18.7099 0.00378617 15.2188 7.9138e-06 11.5388C-0.00377034 8.29327 1.34507 7.02 4.61326 6.57416C8.17616 6.0981 11.7466 6.33613 15.404 6.21145ZM55.3779 7.72275C51.8717 7.83232 48.3655 7.60563 44.8555 8.08924C41.5042 8.55019 39.411 10.258 39.6755 12.8839C39.9966 16.0614 40.5898 19.2087 41.9651 22.133C42.785 23.8748 44.0318 24.9592 46.1325 25.1556C51.0216 25.6166 55.8955 25.6279 60.7657 25.0914C63.1196 24.8345 65.651 24.6682 66.6749 21.9177C67.9255 18.555 68.753 15.0941 68.7303 11.4783C68.7152 8.93935 68.0993 8.45951 65.5188 8.08169C62.1448 7.58674 58.7595 7.85121 55.3779 7.72275ZM15.8989 7.73409C11.8637 7.78321 8.2215 7.62452 4.59059 8.09302C2.50499 8.36506 1.53398 9.25295 1.48486 11.3083C1.41308 14.2327 2.11205 17.0286 2.94327 19.7905C4.21276 24.007 5.58805 24.8912 9.96327 25.1556C14.5387 25.4314 19.0953 25.5675 23.6746 25.1707C25.7715 24.9894 27.2337 24.2262 28.1971 22.3673C29.4931 19.8736 29.9125 17.1495 30.4339 14.4443C31.1215 10.8852 29.478 8.71266 25.8471 8.11191C22.4013 7.54517 18.948 7.87011 15.8989 7.73409Z" fill="#1B2272"/>
<path d="M38.8862 0V1.29972H31.53V0H30.3965V3.72914H31.53V2.4332H38.8862V3.72914H40.0197V0H38.8862Z" fill="#1B2272"/>
</svg>
