<svg width="6" height="11" viewBox="0 0 6 11" fill="none" xmlns="http://www.w3.org/2000/svg">
<path d="M4.8117 5.51929C3.73011 4.44035 2.67605 3.39149 1.62449 2.34181C1.16166 1.88048 0.698843 1.41831 0.240191 0.952807C-0.0475085 0.660298 -0.0791971 0.37364 0.152631 0.157183C0.427822 -0.0993887 0.686334 -0.00996465 0.91983 0.224042C2.54929 1.86042 4.17626 3.49763 5.80406 5.13485C6.08925 5.4215 6.04672 5.69312 5.7732 5.96724C4.17042 7.57019 2.57098 9.17648 0.970699 10.7828C0.7322 11.0218 0.474521 11.0953 0.200997 10.8505C-0.0383354 10.6365 -0.00831458 10.3524 0.289392 10.054C1.70371 8.63576 3.12136 7.22169 4.53734 5.80594C4.61573 5.72738 4.69078 5.64632 4.8117 5.51929Z" fill="#1B2272"/>
</svg>
