<svg width="10" height="11" viewBox="0 0 10 11" fill="none" xmlns="http://www.w3.org/2000/svg">
<path fill-rule="evenodd" clip-rule="evenodd" d="M7.38429 4.09338C7.85644 4.56386 8.33182 5.03757 8.81265 5.51722C8.77726 5.5544 8.74579 5.58765 8.71702 5.61805C8.64751 5.6915 8.59374 5.74831 8.53829 5.80388C8.10266 6.23943 7.66687 6.67483 7.23107 7.11025C6.25033 8.0901 5.26954 9.07002 4.29034 10.0519C3.99264 10.3503 3.96262 10.6344 4.20195 10.8484C4.47547 11.0933 4.73315 11.0197 4.97165 10.7807C5.14969 10.602 5.32772 10.4233 5.50575 10.2446C6.92786 8.81703 8.34969 7.38978 9.77415 5.96517C10.0477 5.69105 10.0902 5.41944 9.80501 5.13278C9.47932 4.8052 9.15366 4.47763 8.82801 4.15006C7.52606 2.84045 6.22422 1.53094 4.92078 0.221973C4.68729 -0.0120339 4.42877 -0.101458 4.15358 0.155114C3.92176 0.37157 3.95344 0.658228 4.24114 0.950737C4.6998 1.41624 5.16262 1.87841 5.62544 2.33974C6.20952 2.92278 6.79437 3.50556 7.38429 4.09338ZM3.38419 4.09329C3.85636 4.56379 4.33177 5.03751 4.81262 5.51719C4.77723 5.55437 4.74576 5.58762 4.71699 5.61802C4.64748 5.69147 4.59371 5.74828 4.53826 5.80385C4.1026 6.23943 3.66678 6.67486 3.23095 7.11031C2.25025 8.09013 1.26948 9.07002 0.290314 10.0519C-0.00739283 10.3503 -0.0374136 10.6344 0.20192 10.8484C0.475443 11.0932 0.733122 11.0197 0.971621 10.7807C1.14956 10.6021 1.32748 10.4235 1.5054 10.2449C2.92762 8.81722 4.34956 7.38986 5.77412 5.96514C6.04765 5.69102 6.09018 5.41941 5.80498 5.13275C5.47945 4.80533 5.15395 4.47792 4.82845 4.15051C3.52635 2.84074 2.22435 1.53107 0.920753 0.221943C0.687259 -0.0120638 0.428745 -0.101488 0.153554 0.155084C-0.0782738 0.37154 -0.0465851 0.658198 0.241115 0.950708C0.699767 1.41621 1.16259 1.87838 1.62541 2.33971C2.20947 2.92273 2.7943 3.50549 3.38419 4.09329Z" fill="#1B2272"/>
</svg>
