<svg width="10" height="11" viewBox="0 0 10 11" fill="none" xmlns="http://www.w3.org/2000/svg">
<path fill-rule="evenodd" clip-rule="evenodd" d="M2.61571 6.90643C2.14356 6.43596 1.66818 5.96225 1.18735 5.4826C1.22274 5.44541 1.25421 5.41217 1.28298 5.38177C1.35249 5.30832 1.40626 5.2515 1.46171 5.19594C1.89734 4.76038 2.33313 4.32498 2.76893 3.88957C3.74967 2.90971 4.73046 1.9298 5.70966 0.947879C6.00736 0.64952 6.03738 0.365369 5.79805 0.15142C5.52453 -0.0934516 5.26685 -0.0199068 5.02835 0.219115C4.85031 0.397824 4.67228 0.576533 4.49425 0.755238C3.07214 2.18278 1.65031 3.61003 0.225848 5.03464C-0.047675 5.30877 -0.0902048 5.58038 0.194993 5.86704C0.520684 6.19461 0.846342 6.52219 1.17199 6.84976C2.47394 8.15937 3.77578 9.46887 5.07922 10.7778C5.31271 11.0119 5.57123 11.1013 5.84642 10.8447C6.07825 10.6282 6.04656 10.3416 5.75886 10.0491C5.3002 9.58357 4.83738 9.12141 4.37456 8.66008C3.79048 8.07704 3.20563 7.49426 2.61571 6.90643ZM6.61581 6.90652C6.14364 6.43603 5.66823 5.9623 5.18738 5.48263C5.22277 5.44544 5.25424 5.4122 5.28301 5.3818C5.35252 5.30835 5.40629 5.25153 5.46174 5.19597C5.8974 4.76038 6.33322 4.32495 6.76905 3.88951C7.74975 2.90968 8.73052 1.9298 9.70969 0.947909C10.0074 0.64955 10.0374 0.365399 9.79808 0.15145C9.52456 -0.0934221 9.26688 -0.0198772 9.02838 0.219144C8.85044 0.397747 8.67252 0.57635 8.4946 0.754948C7.07238 2.1826 5.65044 3.60996 4.22588 5.03467C3.95235 5.3088 3.90982 5.58041 4.19502 5.86707C4.52056 6.19448 4.84605 6.5219 5.17155 6.84931C6.47365 8.15908 7.77565 9.46874 9.07925 10.7779C9.31274 11.0119 9.57126 11.1013 9.84645 10.8447C10.0783 10.6283 10.0466 10.3416 9.75889 10.0491C9.30023 9.5836 8.83741 9.12144 8.37459 8.66011C7.79053 8.07709 7.2057 7.49433 6.61581 6.90652Z" fill="#1B2272"/>
</svg>
