<svg width="6" height="11" viewBox="0 0 6 11" fill="none" xmlns="http://www.w3.org/2000/svg">
<path d="M1.1883 5.48071C2.26989 6.55965 3.32395 7.60851 4.37551 8.65819C4.83834 9.11952 5.30116 9.58169 5.75981 10.0472C6.04751 10.3397 6.0792 10.6264 5.84737 10.8428C5.57218 11.0994 5.31367 11.01 5.08017 10.776C3.45071 9.13958 1.82374 7.50237 0.195945 5.86515C-0.089253 5.5785 -0.0467229 5.30688 0.2268 5.03276C1.82958 3.42981 3.42902 1.82352 5.0293 0.217229C5.2678 -0.0217925 5.52548 -0.095337 5.799 0.149534C6.03834 0.363483 6.00832 0.647635 5.71061 0.945993C4.29629 2.36424 2.87864 3.77831 1.46266 5.19406C1.38427 5.27262 1.30922 5.35368 1.1883 5.48071Z" fill="#1B2272"/>
</svg>
