<svg width="28" height="28" viewBox="0 0 28 28" fill="none" xmlns="http://www.w3.org/2000/svg">
<path d="M22.75 4.375H5.25C4.76675 4.375 4.375 4.76675 4.375 5.25V22.75C4.375 23.2332 4.76675 23.625 5.25 23.625H22.75C23.2332 23.625 23.625 23.2332 23.625 22.75V5.25C23.625 4.76675 23.2332 4.375 22.75 4.375Z" stroke="white" stroke-width="2" stroke-linecap="round" stroke-linejoin="round"/>
<path d="M19.25 2.625V6.125" stroke="white" stroke-width="2" stroke-linecap="round" stroke-linejoin="round"/>
<path d="M8.75 2.625V6.125" stroke="white" stroke-width="2" stroke-linecap="round" stroke-linejoin="round"/>
<path d="M4.375 9.625H23.625" stroke="white" stroke-width="2" stroke-linecap="round" stroke-linejoin="round"/>
<path d="M10.0625 13.9996H13.125L11.375 16.1871C11.6627 16.1871 11.946 16.2581 12.1998 16.3937C12.4536 16.5293 12.67 16.7254 12.8299 16.9646C12.9898 17.2039 13.0883 17.4788 13.1165 17.7652C13.1448 18.0515 13.102 18.3404 12.992 18.6063C12.882 18.8722 12.7081 19.1068 12.4857 19.2894C12.2633 19.4721 11.9994 19.5971 11.7172 19.6533C11.435 19.7096 11.1433 19.6954 10.8679 19.612C10.5925 19.5286 10.3419 19.3786 10.1383 19.1753" stroke="white" stroke-width="2" stroke-linecap="round" stroke-linejoin="round"/>
<path d="M15.75 15.3122L17.5 13.9997V19.6872" stroke="white" stroke-width="2" stroke-linecap="round" stroke-linejoin="round"/>
</svg>
