<svg width="36" height="12" viewBox="0 0 36 12" fill="none" xmlns="http://www.w3.org/2000/svg">
<path d="M35.5303 6.53033C35.8232 6.23744 35.8232 5.76257 35.5303 5.46967L30.7574 0.696702C30.4645 0.403808 29.9896 0.403808 29.6967 0.696702C29.4038 0.989595 29.4038 1.46447 29.6967 1.75736L33.9393 6L29.6967 10.2426C29.4038 10.5355 29.4038 11.0104 29.6967 11.3033C29.9896 11.5962 30.4645 11.5962 30.7574 11.3033L35.5303 6.53033ZM-6.55671e-08 6.75L17.5 6.75L17.5 5.25L6.55671e-08 5.25L-6.55671e-08 6.75ZM17.5 6.75L35 6.75L35 5.25L17.5 5.25L17.5 6.75Z" fill="white"/>
</svg>
