<svg width="17" height="15" viewBox="0 0 17 15" fill="none" xmlns="http://www.w3.org/2000/svg">
<path d="M8.5 14.2C8.5 14.2 1 10 1 4.90001C1.00015 3.99861 1.31249 3.12508 1.88391 2.42794C2.45533 1.73081 3.25056 1.25309 4.13439 1.07601C5.01823 0.898936 5.93611 1.03343 6.73199 1.45663C7.52787 1.87983 8.15261 2.56561 8.50001 3.39738L8.49999 3.39739C8.84738 2.56562 9.47213 1.87983 10.268 1.45663C11.0639 1.03343 11.9818 0.898936 12.8656 1.07601C13.7494 1.25309 14.5447 1.7308 15.1161 2.42794C15.6875 3.12508 15.9998 3.99861 16 4.90001C16 10 8.5 14.2 8.5 14.2Z" stroke="white" stroke-width="0.5" stroke-linecap="round" stroke-linejoin="round"/>
</svg>
