<svg width="15" height="16" viewBox="0 0 15 16" fill="none" xmlns="http://www.w3.org/2000/svg">
<path fill-rule="evenodd" clip-rule="evenodd" d="M7.02194 0.0157808C5.42756 0.122612 3.9242 0.7658 2.67255 1.8766C2.44976 2.07432 1.94413 2.61362 1.75876 2.85125C0.800906 4.0791 0.211299 5.53842 0.0486261 7.08401C-0.183596 9.29038 0.420735 11.4336 1.75876 13.1488C1.94413 13.3864 2.44976 13.9257 2.67255 14.1234C3.8221 15.1436 5.18327 15.7693 6.64102 15.9475C8.88429 16.2218 11.1115 15.4114 12.7253 13.7336C13.3559 13.078 13.8228 12.3979 14.2119 11.5679C15.452 8.92314 15.2149 5.74777 13.5976 3.34161C12.8527 2.23337 11.8128 1.31259 10.6674 0.747185C9.52455 0.183008 8.2732 -0.0680472 7.02194 0.0157808ZM9.30746 3.17568C9.91469 3.2112 10.2841 3.30029 10.6718 3.50473C11.3646 3.87006 11.8178 4.56422 11.9523 5.46625C12.0121 5.86769 12.0154 6.00073 12.0154 7.99261C12.0154 9.97932 12.012 10.1202 11.9532 10.5116C11.7657 11.7593 11.0025 12.5647 9.82689 12.7556C9.47804 12.8123 9.32192 12.8163 7.4929 12.8163C5.66705 12.8163 5.51767 12.8125 5.15891 12.7561C4.04504 12.581 3.27143 11.8128 3.05482 10.6667C2.98099 10.2761 2.96462 9.91723 2.95438 8.46538C2.94616 7.29723 2.96199 6.16373 2.99153 5.80605C3.04413 5.16926 3.19334 4.68689 3.46452 4.27696C3.57325 4.11261 3.81975 3.84422 3.97023 3.72637C4.32245 3.45055 4.75584 3.27715 5.24938 3.21458C5.51011 3.18155 5.62645 3.17395 6.06897 3.16118C6.60084 3.14581 8.97867 3.15646 9.30746 3.17568ZM5.99693 4.02778C5.71185 4.03905 5.38279 4.06495 5.2621 4.08559C4.9904 4.13207 4.73456 4.22727 4.5479 4.35136C4.42423 4.43356 4.23593 4.62023 4.14062 4.7551C4.00118 4.95241 3.88661 5.26182 3.83594 5.57791C3.78099 5.92073 3.77375 6.20206 3.77375 7.99261C3.77375 9.78317 3.78099 10.0645 3.83594 10.4073C3.94594 11.0936 4.28901 11.5614 4.84645 11.7852C5.24246 11.9441 5.76038 11.975 7.82534 11.9625C9.08679 11.9549 9.42551 11.9436 9.7022 11.8998C9.96291 11.8585 10.2391 11.7591 10.4228 11.6403C10.5973 11.5275 10.8071 11.3037 10.9128 11.1177C11.0241 10.9218 11.1173 10.6275 11.1562 10.349C11.1968 10.0586 11.2078 9.67979 11.2149 8.3301C11.2219 6.98662 11.2093 6.17167 11.1759 5.80619C11.1245 5.24331 10.9589 4.8381 10.6579 4.53822C10.3554 4.2369 9.98802 4.09467 9.38883 4.04685C9.19409 4.03131 6.31645 4.01513 5.99693 4.02778ZM10.0469 4.85329C10.2057 4.89742 10.3285 5.00811 10.4017 5.17312C10.4979 5.39018 10.4547 5.64757 10.2929 5.82008C10.173 5.948 10.0065 6.00509 9.82689 5.97986C9.53572 5.93893 9.31995 5.62023 9.37637 5.31439C9.43925 4.97346 9.73854 4.76763 10.0469 4.85329ZM7.94127 5.55386C8.40419 5.65328 8.79532 5.87837 9.1351 6.24096C9.60737 6.7449 9.8412 7.38014 9.81525 8.08864C9.76759 9.39018 8.8032 10.4188 7.58293 10.4696C6.77023 10.5035 6.00683 10.0902 5.56007 9.37453C5.31069 8.97503 5.18718 8.56871 5.17018 8.09198C5.15338 7.62043 5.23212 7.24624 5.43612 6.82839C5.64943 6.3914 6.02263 6.00042 6.44019 5.77649C6.66956 5.6535 6.90558 5.57239 7.14881 5.533C7.34293 5.50155 7.74727 5.5122 7.94127 5.55386ZM7.31992 6.38308C6.61715 6.46665 6.0555 7.07805 5.98298 7.83849C5.93746 8.31579 6.09367 8.77676 6.41858 9.12398C6.62965 9.34953 6.83793 9.47916 7.12123 9.56134C7.22207 9.59059 7.26899 9.59475 7.4929 9.59437C7.77672 9.59388 7.8525 9.57909 8.0813 9.47961C8.43899 9.32406 8.76649 8.96494 8.90288 8.57868C8.98466 8.34707 9.0066 8.19855 8.99818 7.93352C8.98998 7.67535 8.96629 7.55721 8.87988 7.34344C8.80251 7.15201 8.71081 7.01364 8.54644 6.84024C8.38414 6.66904 8.23508 6.56392 8.04193 6.48448C7.82301 6.39443 7.54858 6.3559 7.31992 6.38308Z" fill="white"/>
</svg>
