<svg width="16" height="16" viewBox="0 0 16 16" fill="none" xmlns="http://www.w3.org/2000/svg">
<path fill-rule="evenodd" clip-rule="evenodd" d="M6.79485 0.0575181C5.84831 0.211678 5.16758 0.436385 4.29492 0.882727C2.15914 1.97515 0.636076 3.99084 0.109257 6.42228C0.0138434 6.86277 0 7.06317 0 8.0071C0 8.95103 0.0138434 9.15143 0.109257 9.59192C0.636364 12.0246 2.15361 14.032 4.29905 15.1353C4.97776 15.4843 5.65835 15.7275 6.41378 15.8908C6.85465 15.9862 7.05523 16 8 16C8.94476 16 9.14535 15.9862 9.58622 15.8908C10.3417 15.7275 11.0222 15.4843 11.7009 15.1353C13.8464 14.032 15.3636 12.0246 15.8907 9.59192C15.9862 9.15143 16 8.95103 16 8.0071C16 7.06317 15.9862 6.86277 15.8907 6.42228C15.3636 3.98964 13.8464 1.98221 11.7009 0.878933C11.0271 0.532435 10.339 0.28578 9.61026 0.129603C8.98389 -0.00467388 7.42223 -0.0446305 6.79485 0.0575181ZM6.6047 3.48077C6.60393 3.50056 6.48117 3.5907 6.33187 3.68103C5.76126 4.02628 5.11307 4.7466 4.78564 5.3994C4.5017 5.96547 4.41946 6.36211 4.41922 7.16667C4.41903 7.78873 4.43436 7.93598 4.53165 8.24554C4.73627 8.89652 5.00117 9.34973 5.49622 9.89548C5.81774 10.25 5.85288 10.3757 5.69998 10.6244C5.58673 10.8087 5.33409 11.0579 5.10394 11.2125C5.00482 11.2791 4.92369 11.3549 4.92369 11.381C4.92369 11.411 5.14023 11.4194 5.51251 11.4038C5.98521 11.3841 6.20463 11.3488 6.62498 11.225L7.14858 11.0708L7.4902 11.1694C8.09003 11.3425 8.22385 11.3697 8.69347 11.4141C10.0383 11.5412 11.4161 11.106 12.4516 10.2268L12.8067 9.92525V10.6933C12.8067 11.3411 12.7918 11.501 12.7116 11.7152C12.583 12.0582 12.3763 12.2957 12.0764 12.4451L11.8265 12.5694L8.00259 12.5684C4.26103 12.5674 4.17398 12.5652 3.96234 12.4696C3.69754 12.35 3.45936 12.1284 3.32122 11.8731C3.21773 11.6818 3.21725 11.6656 3.20326 8.12716C3.19288 5.49766 3.20403 4.51964 3.24618 4.36692C3.35236 3.98224 3.67345 3.65102 4.08251 3.50411C4.24666 3.44518 6.60686 3.42333 6.6047 3.48077ZM10.1011 6.03809C10.1439 6.1229 10.1616 6.4473 10.1616 7.14265C10.1616 8.24751 10.1376 8.35778 9.89159 8.38188C9.59776 8.41065 9.58622 8.36388 9.58622 7.14265C9.58622 6.1933 9.5968 6.03439 9.66433 5.96686C9.78118 5.85016 10.0267 5.89017 10.1011 6.03809ZM7.42319 6.09994C7.50548 6.14129 7.54797 6.20718 7.55797 6.30909C7.57018 6.43367 7.50072 6.55046 7.13012 7.02836C6.88681 7.34215 6.63287 7.65834 6.56581 7.73096L6.44387 7.86303H6.9367C7.5025 7.86303 7.61546 7.90269 7.61546 8.10142C7.61546 8.36849 7.54317 8.3913 6.69656 8.3913C5.94541 8.3913 5.92618 8.38875 5.81077 8.2734C5.74588 8.20856 5.69276 8.12452 5.69276 8.08658C5.69276 8.01373 5.89527 7.73067 6.45396 7.02259L6.795 6.59037L6.34153 6.56636C6.00626 6.54859 5.8672 6.5215 5.80817 6.46238C5.70348 6.35745 5.75463 6.14494 5.89849 6.08707C6.06764 6.01907 7.28274 6.0293 7.42319 6.09994ZM8.68078 6.65415C8.82671 6.72849 8.86656 6.73219 8.94049 6.67816C9.06402 6.58792 9.18625 6.59897 9.29782 6.71043C9.38521 6.79774 9.39395 6.8705 9.39395 7.51105C9.39395 8.09931 9.38083 8.23018 9.3144 8.30346C9.22533 8.40182 9.00946 8.42016 8.92568 8.33645C8.88458 8.29539 8.82623 8.30279 8.69299 8.36594C8.34493 8.53095 7.86993 8.35946 7.68492 8.00206C7.42406 7.49799 7.62147 6.88808 8.12017 6.65741C8.36291 6.54513 8.46558 6.54455 8.68078 6.65415ZM11.6539 6.71812C12.1514 6.9932 12.2398 7.8235 11.8127 8.20938C11.5852 8.41493 11.1408 8.49758 10.8511 8.38822C10.6853 8.32565 10.4661 8.12356 10.3751 7.94947C10.2727 7.75372 10.2891 7.30656 10.4075 7.06212C10.6272 6.60857 11.18 6.45605 11.6539 6.71812ZM8.26221 7.21253C8.01966 7.45482 8.16232 7.91105 8.48067 7.91105C8.79902 7.91105 8.94169 7.45482 8.69914 7.21253C8.63425 7.1477 8.53595 7.09463 8.48067 7.09463C8.4254 7.09463 8.3271 7.1477 8.26221 7.21253ZM11.0479 7.14131C10.9157 7.19476 10.8161 7.44094 10.8583 7.60998C10.9249 7.87652 11.1384 7.98405 11.3628 7.86403C11.5888 7.7432 11.5721 7.25671 11.3383 7.15029C11.1983 7.08656 11.1845 7.08613 11.0479 7.14131Z" fill="white"/>
</svg>
