<svg width="16" height="16" viewBox="0 0 16 16" fill="none" xmlns="http://www.w3.org/2000/svg">
<path fill-rule="evenodd" clip-rule="evenodd" d="M7.44832 0.0183316C5.77825 0.135714 4.22671 0.754664 2.91102 1.82835C2.62374 2.06277 2.0609 2.6262 1.82671 2.91378C0.541257 4.49223 -0.104753 6.4598 0.0138587 8.43528C0.128818 10.3497 0.817603 11.9953 2.09962 13.4184C2.71223 14.0984 3.56894 14.7487 4.40569 15.1689C5.28548 15.6107 6.34112 15.9123 7.26358 15.9854L7.44832 16V13.3238V10.6476L6.50352 10.642L5.55872 10.6365L5.55325 9.54283L5.54778 8.44911H6.49805H7.44832V7.56513C7.44832 6.44125 7.48079 6.10075 7.62947 5.66537C7.94358 4.74559 8.62019 4.18072 9.65461 3.9747C9.96807 3.91227 11.2742 3.92939 11.8662 4.00368L11.9665 4.01627V4.99631V5.97635H11.2689C10.7153 5.97635 10.5379 5.98324 10.4098 6.00974C10.1295 6.06769 9.95226 6.1837 9.84629 6.37856C9.72675 6.59847 9.72295 6.63256 9.71299 7.5773L9.70378 8.44911H10.7929C11.3919 8.44911 11.882 8.45424 11.882 8.46054C11.882 8.46682 11.849 8.72597 11.8086 9.03646C11.6682 10.1167 11.6076 10.5944 11.6076 10.6207C11.6075 10.6414 11.4034 10.6471 10.6575 10.6471H9.70739V13.2361C9.70739 15.6878 9.70936 15.8251 9.74434 15.825C9.76465 15.8249 9.89055 15.7962 10.0241 15.7611C11.8656 15.2776 13.4757 14.1522 14.574 12.5809C16.32 10.0829 16.4756 6.72866 14.9691 4.06366C14.8231 3.80531 14.4576 3.26287 14.2791 3.03956C13.3507 1.87778 12.155 1.00758 10.7841 0.496081C9.75604 0.112444 8.55548 -0.0594863 7.44832 0.0183316Z" fill="white"/>
</svg>
