<svg width="36" height="15" viewBox="0 0 36 15" fill="none" xmlns="http://www.w3.org/2000/svg">
<path fill-rule="evenodd" clip-rule="evenodd" d="M3.75216 0.961485C-1.38976 4.02363 -1.21032 11.5258 4.06556 14.071C6.52725 15.2588 8.26436 15.3022 10.5266 14.2322C12.5424 13.2788 15.0662 10.0339 15.0662 8.39492C15.0662 7.32012 15.2466 7.24996 17.9996 7.24996C20.7527 7.24996 20.9331 7.32012 20.9331 8.39492C20.9331 10.0339 23.4569 13.2788 25.4727 14.2322C27.7349 15.3022 29.472 15.2588 31.9337 14.071C37.2429 11.5097 37.3837 3.89013 32.1762 0.973665C28.4932 -1.0892 23.5073 0.246741 21.4807 3.83946C20.4335 5.69672 20.2697 5.78832 17.9996 5.78832C15.7462 5.78832 15.5604 5.68747 14.5626 3.91742C13.2195 1.53591 11.302 0.41483 8.08346 0.128347C6.05936 -0.0519219 5.16464 0.120065 3.75216 0.961485ZM11.5773 2.73348C13.6307 4.24726 14.3083 6.05921 13.6454 8.26386C12.0217 13.6646 6.06522 15.1643 2.58904 11.0473C0.236865 8.26142 1.52907 3.33909 5.0033 1.84919C6.55072 1.18609 10.1315 1.66746 11.5773 2.73348ZM33.0172 3.5408C37.8423 8.78761 31.1588 16.2844 25.1525 12.3623C23.4139 11.2271 21.7491 7.63145 22.1403 5.85604C22.7514 3.08525 25.7294 1.29815 29.2281 1.60363C30.9794 1.75711 31.7289 2.14006 33.0172 3.5408Z" fill="#1B2272"/>
</svg>
