<svg width="36" height="14" viewBox="0 0 36 14" fill="none" xmlns="http://www.w3.org/2000/svg">
<path fill-rule="evenodd" clip-rule="evenodd" d="M5.27468 0.257159C3.79338 0.478456 1.95495 0.901656 1.18889 1.19854C-0.0144191 1.66401 -0.15952 1.92261 0.122865 3.09573C0.303142 3.84317 0.644154 5.66924 0.880614 7.15367C1.39799 10.3946 2.52412 12.0968 4.96982 13.3341C7.20497 14.4649 10.4245 14.1243 12.3915 12.5493C13.9822 11.2758 15.5148 8.01599 15.5295 5.87512C15.5412 4.13608 16.1783 3.7084 18.7559 3.7084C20.3579 3.7084 20.4263 3.78399 20.4365 5.57326C20.4502 7.98267 21.9022 11.2101 23.5745 12.5493C25.5414 14.1243 28.761 14.4649 30.9962 13.3341C33.4336 12.1013 34.5294 10.4348 34.8743 7.43813C35.0316 6.07056 35.3917 4.4633 35.6746 3.86604C36.4792 2.16927 35.849 1.38901 33.1409 0.727602C29.297 -0.210797 24.685 -0.0272946 22.5114 1.1513C21.4986 1.70081 19.4829 2.24734 18.0314 2.3662C15.8446 2.54522 15.1015 2.38062 13.6886 1.40492C12.751 0.756943 11.3733 0.227321 10.6263 0.227321C9.87981 0.227321 8.97598 0.143278 8.61836 0.0408351C8.26025 -0.061608 6.75598 0.0353646 5.27468 0.257159ZM13.032 2.55318C14.0682 3.23149 14.1649 3.58855 13.9671 6.01586C13.6964 9.3383 12.4467 11.1882 9.87492 12.0729C5.84532 13.4594 2.35508 10.8307 2.35117 6.40574C2.34921 4.12911 3.6517 2.48754 6.07152 1.71722C7.88162 1.14185 11.5477 1.58196 13.032 2.55318ZM29.6678 1.70728C33.4707 2.81774 34.7869 6.47337 32.6612 10.0221C30.766 13.1859 25.4926 13.2122 23.2013 10.0693C21.8724 8.24673 21.4815 3.67906 22.5754 2.75508C24.1012 1.46609 27.2484 1.00112 29.6678 1.70728Z" fill="#1B2272"/>
</svg>
