<svg width="36" height="11" viewBox="0 0 36 11" fill="none" xmlns="http://www.w3.org/2000/svg">
<path fill-rule="evenodd" clip-rule="evenodd" d="M3.61304 0.86188C0.047934 2.46309 -1.04177 5.6833 1.07834 8.34959C2.50681 10.1465 4.78732 11.001 8.15024 11C11.552 10.9995 13.9871 9.90512 15.3325 7.77402C16.1427 6.48968 16.6137 6.22666 18.1296 6.21127C19.3199 6.19877 19.9523 6.41178 19.9523 6.82387C19.9523 7.70189 22.3475 9.87434 23.9937 10.4893C26.0331 11.252 30.5139 11.1077 32.4076 10.2186C35.7141 8.66646 36.9652 5.37749 35.1979 2.88143C32.3376 -1.15911 22.9371 -0.869159 20.52 3.33438C19.8658 4.47206 19.3812 4.74373 18.0081 4.74373C16.6224 4.74373 16.1514 4.4735 15.4686 3.2863C13.7266 0.25794 7.69968 -0.974464 3.61304 0.86188ZM12.5499 2.34625C14.7866 3.69549 15.4603 5.32411 14.427 6.88397C11.9064 10.6903 4.1822 10.6903 1.66159 6.88397C0.628267 5.32411 1.30192 3.69549 3.53868 2.34625C5.72684 1.02681 10.3617 1.02681 12.5499 2.34625ZM32.48 2.34769C34.5787 3.61375 35.3024 5.45298 34.2987 6.9686C33.1838 8.65252 30.7064 9.73874 27.972 9.74355C25.1262 9.74788 23.0984 8.87178 21.7341 7.04794C20.9137 5.95065 20.8461 5.5429 21.3161 4.52255C22.713 1.48938 29.0203 0.260825 32.48 2.34769Z" fill="#1B2272"/>
</svg>
