<svg width="36" height="13" viewBox="0 0 36 13" fill="none" xmlns="http://www.w3.org/2000/svg">
<path fill-rule="evenodd" clip-rule="evenodd" d="M2.54881 0.352908C0.241963 0.756317 -0.520329 1.25319 0.349123 1.78736C0.669627 1.98446 1.14795 3.66154 1.41292 5.51441C2.02763 9.81583 2.77677 11.9292 3.89804 12.5259C5.10261 13.1666 12.4669 13.1298 13.6939 12.477C14.9657 11.8004 15.8741 9.58434 16.3086 6.09894C16.6344 3.48478 16.7357 3.31431 17.9656 3.31431C19.2189 3.31431 19.3032 3.47509 19.9008 7.01085C20.799 12.3259 21.5925 13 26.9539 13C29.2213 13 31.4312 12.8644 31.8647 12.6993C33.117 12.2213 33.9572 10.1079 34.5344 5.98126C34.8291 3.87414 35.3337 1.98785 35.6562 1.78978C38.1997 0.226993 25.9207 -0.742544 22.1448 0.722901C18.9734 1.95395 17.1921 2.04936 15.1999 1.09532C13.1888 0.131589 6.16934 -0.280052 2.54881 0.352908ZM13.612 1.93119L15.2097 2.48473L14.9189 5.58415C14.7586 7.28932 14.3432 9.27391 13.9959 9.99453C13.3748 11.2827 13.2857 11.305 8.74554 11.305H4.12698L3.54637 9.54269C3.22684 8.57364 2.81622 6.46991 2.63405 4.86741C2.33888 2.27358 2.4022 1.92925 3.21271 1.72198C5.05001 1.25271 12.0611 1.39363 13.612 1.93119ZM33.3946 1.98785C33.8427 2.43436 32.8252 9.28747 32.115 10.6067C31.6718 11.4299 31.0673 11.5471 27.2544 11.5471H22.9003L22.1375 10.0807C21.7182 9.27391 21.2452 7.23169 21.0864 5.54153C20.8005 2.49732 20.8107 2.46439 22.2018 1.93942C23.743 1.35828 32.8023 1.39751 33.3946 1.98785Z" fill="#1B2272"/>
</svg>
