<svg width="36" height="10" viewBox="0 0 36 10" fill="none" xmlns="http://www.w3.org/2000/svg">
<path fill-rule="evenodd" clip-rule="evenodd" d="M0.149224 0.567442C0.00888835 0.933975 -0.0416523 3.20638 0.0373477 5.61684L0.180137 10H7.54038H14.9006L15.146 7.54335L15.3913 5.0867H18.0901H20.7888L21.0342 7.54335L21.2795 10H28.6398H36V5.0867V0.173395H28.6398H21.2795L21.0342 1.89305L20.7888 3.61271H18.0901H15.3913L15.146 1.89305L14.9006 0.173395L7.65275 0.0372967C1.90979 -0.0703046 0.351876 0.0397536 0.149224 0.567442ZM14.1646 5.0867V8.77167H7.54038H0.916161V5.0867V1.40172H7.54038H14.1646V5.0867ZM35.264 5.0867V8.77167H28.6398H22.0155V5.0867V1.40172H28.6398H35.264V5.0867Z" fill="#1B2272"/>
</svg>
