<svg width="36" height="10" viewBox="0 0 36 10" fill="none" xmlns="http://www.w3.org/2000/svg">
<path fill-rule="evenodd" clip-rule="evenodd" d="M3.67297 0.38413C0.653838 1.14024 0 2.0144 0 5.29349C0 7.96037 0.0895134 8.17891 1.47308 8.89649C3.46573 9.92919 8.5427 10.3443 11.0038 9.67455C13.5005 8.996 15.5676 7.40866 15.5676 6.17058C15.5676 5.37105 15.9217 5.23056 17.9392 5.23056C20.1517 5.23056 20.3293 5.32276 20.5852 6.60669C20.7915 7.64085 21.3777 8.21648 22.9447 8.92381C25.7371 10.1843 32.1388 10.2194 34.4189 8.98674C35.9241 8.17355 36 7.99598 36 5.29349C36 1.85879 35.3481 1.10805 31.6771 0.318762C27.2243 -0.638817 21.474 0.773893 20.6071 3.03833C20.1605 4.20567 15.9626 4.02566 15.2037 2.80662C13.8065 0.563645 7.90638 -0.675891 3.67297 0.38413ZM12.8763 2.49246C13.8454 3.12906 14.1081 3.70712 14.1081 5.2013C14.1081 7.00328 13.9952 7.14426 11.9204 7.93891C10.3223 8.55112 8.84286 8.71258 6.42892 8.53941C1.78784 8.20672 0.972973 7.67305 0.972973 4.96958C0.972973 3.77151 1.02795 2.78808 1.09459 2.78418C1.16124 2.78027 2.09189 2.4471 3.16216 2.04416C5.64811 1.10756 11.1556 1.3622 12.8763 2.49246ZM33.7276 2.44807C34.7799 3.1393 35.027 3.67541 35.027 5.26666C35.027 7.07548 34.8825 7.29207 33.2051 7.99501C31.1886 8.8399 25.6232 8.69795 23.2297 7.74086C22.0899 7.28524 21.8919 6.92426 21.8919 5.30227C21.8919 3.25394 22.4961 2.48905 24.6581 1.79928C26.8662 1.09439 32.2541 1.47976 33.7276 2.44807Z" fill="#1B2272"/>
</svg>
